<?xml version="1.0" standalone="no"?>
<!DOCTYPE svg PUBLIC "-//W3C//DTD SVG 20010904//EN"
 "http://www.w3.org/TR/2001/REC-SVG-20010904/DTD/svg10.dtd">
<svg version="1.0" xmlns="http://www.w3.org/2000/svg"
 width="1258.000000pt" height="417.000000pt" viewBox="0 0 1258.000000 417.000000"
 preserveAspectRatio="xMidYMid meet">
<metadata>
Created by potrace 1.16, written by Peter Selinger 2001-2019
</metadata>
<g transform="translate(0.000000,417.000000) scale(0.100000,-0.100000)"
fill="#000000" stroke="none">
<path d="M6685 3414 c-77 -29 -201 -54 -320 -64 -108 -10 -134 -17 -135 -41 0
-4 23 -9 50 -13 62 -8 90 -33 90 -79 0 -19 -76 -288 -169 -598 -93 -310 -176
-592 -185 -625 -48 -186 13 -304 157 -305 169 -2 252 67 321 269 32 93 34 102
17 102 -14 0 -25 -17 -41 -62 -51 -139 -99 -208 -144 -208 -31 0 -46 19 -46
58 0 24 405 1419 455 1570 5 15 0 14 -50 -4z" fill="#4b4b4b"/>
<path d="M9595 3413 c-97 -34 -327 -73 -436 -73 -9 0 -19 -9 -22 -20 -4 -17 0
-20 24 -20 76 0 127 -49 113 -108 -4 -15 -87 -297 -186 -627 -163 -544 -180
-607 -181 -680 -2 -89 14 -130 66 -169 24 -18 43 -21 120 -21 83 0 97 3 145
29 78 44 113 96 163 245 16 47 29 86 29 88 0 2 -8 3 -18 3 -12 0 -24 -19 -41
-67 -49 -138 -94 -203 -141 -203 -34 0 -50 17 -50 54 0 17 103 379 230 805
126 426 228 776 227 777 -1 1 -20 -5 -42 -13z" fill="#5e5e5e"/>
<path d="M10035 3361 c-74 -34 -115 -95 -115 -171 0 -90 45 -130 148 -130 95
0 170 40 208 112 17 33 18 108 2 143 -28 61 -158 85 -243 46z" fill="#646464"/>
<path d="M1600 3254 c-292 -62 -570 -293 -722 -599 -125 -251 -154 -547 -69
-713 30 -59 98 -129 160 -166 105 -61 212 -87 366 -87 125 0 187 16 338 87
143 67 177 74 206 45 11 -11 24 -39 27 -61 5 -29 11 -40 24 -40 14 0 27 38 70
198 97 363 110 392 184 406 27 5 46 21 46 39 0 1 -151 2 -335 2 -289 0 -335
-2 -337 -15 -3 -11 14 -18 67 -27 114 -19 127 -58 80 -244 -72 -285 -101 -325
-247 -348 -61 -10 -158 3 -207 29 -52 26 -106 92 -128 154 -27 78 -24 355 6
490 83 380 268 693 466 790 106 52 236 58 349 16 65 -25 110 -57 146 -107 43
-59 53 -104 51 -235 -1 -108 1 -118 18 -118 15 0 23 23 51 138 18 75 48 183
66 239 19 56 34 104 34 107 0 3 -9 6 -19 6 -14 0 -27 -16 -44 -54 -35 -75 -54
-84 -103 -46 -86 67 -146 101 -201 115 -72 19 -254 19 -343 -1z" fill="#333333"/>
<path d="M4896 3225 c-3 -9 -6 -18 -6 -20 0 -1 20 -5 45 -7 25 -3 57 -13 71
-23 25 -16 26 -21 22 -78 -6 -78 -302 -1198 -332 -1251 -30 -56 -66 -78 -130
-84 -42 -3 -55 -8 -59 -23 -5 -18 7 -19 338 -19 303 0 344 2 349 16 9 23 8 24
-24 24 -36 0 -94 22 -105 40 -17 27 -5 98 50 309 l58 221 51 0 c61 0 229 25
309 45 84 22 202 70 271 112 205 125 309 368 237 555 -16 42 -80 107 -131 133
-110 56 -132 58 -586 62 -384 4 -422 3 -428 -12z m729 -56 c19 -13 45 -44 58
-69 19 -39 22 -60 21 -155 -3 -248 -105 -439 -278 -523 -89 -44 -236 -69 -236
-42 0 16 189 722 201 753 7 15 23 37 38 48 37 29 145 23 196 -12z" fill="#454545"/>
<path d="M11800 3170 c-25 -5 -91 -11 -146 -15 l-102 -8 -32 -111 c-17 -61
-38 -135 -46 -163 l-15 -53 -99 0 c-78 0 -99 -3 -104 -15 -4 -13 10 -15 95
-15 98 0 100 -1 94 -21 -53 -165 -227 -798 -231 -839 -16 -147 68 -239 217
-240 84 0 147 22 203 71 55 49 85 100 125 212 27 76 29 88 14 85 -11 -2 -27
-30 -45 -76 -51 -133 -106 -192 -181 -192 -45 0 -62 22 -60 74 1 23 60 239
130 481 l128 440 128 3 c104 2 127 5 127 17 0 12 -21 15 -120 15 -66 0 -120 4
-120 8 0 8 74 266 94 330 4 12 4 21 -1 21 -4 -1 -28 -5 -53 -9z" fill="#707070"/>
<path d="M2985 2854 c-103 -21 -134 -29 -182 -50 -224 -99 -422 -344 -494
-612 -26 -99 -35 -226 -20 -289 24 -96 96 -169 195 -198 61 -19 194 -21 262
-4 117 28 273 134 339 229 23 33 26 43 15 50 -10 6 -32 -8 -74 -47 -84 -78
-171 -118 -258 -118 -75 0 -109 18 -142 74 -22 37 -33 182 -19 246 9 39 9 39
93 66 205 64 359 148 466 254 87 86 118 155 112 249 -4 55 -8 62 -46 97 -57
50 -154 71 -247 53z m56 -61 c18 -45 -4 -172 -45 -256 -39 -80 -112 -167 -184
-220 -52 -38 -182 -110 -189 -104 -8 8 38 157 76 245 84 196 223 362 303 362
22 0 31 -6 39 -27z" fill="#393939"/>
<path d="M3582 2845 c-54 -16 -106 -56 -137 -103 -19 -29 -105 -241 -105 -258
0 -2 8 -4 18 -4 12 0 27 26 54 98 40 105 86 168 128 177 36 8 54 -8 52 -47 -1
-18 -53 -217 -117 -443 -64 -225 -124 -440 -135 -477 l-18 -68 149 0 c111 0
151 3 153 13 3 6 21 68 41 137 104 353 274 708 397 827 59 57 92 69 119 42 17
-17 20 -28 14 -57 -3 -21 -58 -194 -122 -387 -105 -318 -116 -357 -117 -427
-1 -63 3 -81 20 -104 40 -54 70 -68 150 -72 97 -5 153 11 210 61 51 45 78 94
123 220 28 79 29 87 12 87 -13 0 -27 -24 -56 -97 -45 -113 -92 -173 -136 -173
-33 0 -52 31 -42 71 3 13 59 187 125 387 100 304 120 374 121 430 2 79 -19
125 -73 157 -28 16 -53 20 -120 20 -76 0 -93 -4 -152 -33 -113 -56 -211 -183
-308 -402 -23 -52 -46 -98 -49 -103 -4 -4 10 59 30 139 46 178 54 238 40 290
-26 95 -143 139 -269 99z" fill="#3f3f3f"/>
<path d="M7211 2845 c-280 -78 -571 -526 -575 -885 -2 -187 71 -271 235 -271
133 -1 242 77 321 226 l35 67 -4 -93 c-5 -86 -3 -97 18 -128 52 -75 177 -96
282 -48 91 42 122 85 183 254 31 86 32 93 15 93 -14 0 -24 -14 -37 -47 -58
-161 -106 -227 -160 -221 -54 6 -47 41 106 563 77 264 143 486 145 494 4 10
-1 12 -17 7 -13 -3 -83 -12 -156 -18 l-132 -12 -12 -41 c-15 -51 -28 -67 -28
-32 0 17 -13 41 -33 63 -28 31 -41 37 -83 40 -27 2 -73 -3 -103 -11z m183 -87
c33 -52 30 -98 -18 -264 -95 -335 -157 -491 -242 -603 -46 -62 -88 -91 -129
-91 -36 0 -55 48 -55 144 0 273 126 613 286 774 56 56 66 62 103 62 31 0 44
-5 55 -22z" fill="#525252"/>
<path d="M8098 2846 c-57 -21 -85 -42 -121 -92 -34 -47 -115 -250 -104 -260
16 -17 36 12 66 94 53 149 99 195 136 138 11 -16 47 -213 106 -567 49 -299 88
-546 87 -550 -6 -16 -145 -122 -210 -160 l-69 -41 -40 46 c-50 57 -92 83 -158
97 -103 22 -181 -34 -181 -129 0 -36 6 -49 30 -72 46 -43 111 -51 214 -24 251
65 514 286 718 605 179 278 288 578 275 755 -8 112 -43 160 -124 171 -127 17
-195 -119 -127 -255 25 -50 90 -116 145 -149 l27 -16 -28 -81 c-15 -45 -46
-121 -69 -170 -43 -93 -160 -296 -171 -296 -3 0 -27 161 -54 358 -67 501 -77
536 -156 581 -51 29 -140 37 -192 17z" fill="#585858"/>
<path d="M9844 2842 c-116 -41 -152 -87 -223 -281 -27 -75 -28 -81 -11 -81 14
0 26 20 50 83 44 115 75 165 116 185 48 22 69 8 68 -44 -1 -22 -51 -186 -112
-365 -62 -180 -119 -357 -128 -395 -38 -165 25 -254 179 -254 77 0 141 20 191
62 52 43 79 90 120 207 32 92 34 101 17 101 -13 0 -24 -17 -41 -62 -32 -90
-68 -157 -97 -184 -30 -28 -74 -31 -94 -8 -17 21 -10 45 135 469 100 293 116
348 116 402 0 120 -50 171 -174 180 -42 2 -77 -2 -112 -15z" fill="#646464"/>
<path d="M10674 2846 c-117 -27 -189 -79 -233 -168 -26 -50 -31 -73 -31 -130
0 -91 24 -157 104 -283 84 -133 113 -192 132 -267 41 -159 -30 -268 -172 -268
-84 0 -87 4 -63 80 38 118 12 237 -56 266 -97 40 -182 -63 -155 -189 21 -102
76 -151 200 -183 48 -12 93 -15 177 -12 105 4 116 7 188 42 56 28 86 50 114
87 104 131 92 280 -41 499 -113 188 -128 217 -138 268 -11 62 0 130 30 172 24
34 86 60 143 60 67 0 70 -8 37 -74 -37 -72 -40 -147 -11 -205 54 -105 198 -62
217 66 22 150 -84 241 -296 249 -50 2 -110 -2 -146 -10z" fill="#6a6a6a"/>
</g>
</svg>
